# xmcd CD database file
#
# Track frame offsets:
#	150
#	19183
#	44554
#	58239
#	74909
#	94943
#	113792
#	130008
#	144706
#	164528
#	180034
#
# Disc length: 2633 seconds
#
# Revision: 5
# Processed by: cddbd v1.5.2PL0 Copyright (c) Steve Scherf et al.
# Submitted via: CDex 1.90
#
DISCID=a20a470b
DTITLE=Seal - Soul 2
DYEAR=2011
DGENRE=Soul
TTITLE0=Wishing On A Star
TTITLE1=Love T.K.O.
TTITLE2=Ooh Baby Baby
TTITLE3=Let's Stay Together
TTITLE4=What's Going On
TTITLE5=Love Don't Live Here Anymore
TTITLE6=Back Stabbers
TTITLE7=I'll Be Around
TTITLE8=Love Won't Let Me Wait
TTITLE9=Lean On Me
TTITLE10=Oh Girl
EXTD=YEAR: 2011
EXTT0=
EXTT1=
EXTT2=
EXTT3=
EXTT4=
EXTT5=
EXTT6=
EXTT7=
EXTT8=
EXTT9=
EXTT10=
PLAYORDER=
